<svg width="28" height="19" viewBox="0 0 28 19" fill="none" xmlns="http://www.w3.org/2000/svg">
<path d="M0 8.2C0 4.22355 3.22355 1 7.2 1H20.8C24.7765 1 28 4.22355 28 8.2C28 12.1764 24.7765 15.4 20.8 15.4H11.1645C10.2732 15.4 9.43995 15.8424 8.94059 16.5807L7.88871 18.136C7.71217 18.397 7.30435 18.272 7.30435 17.9569V16.0087C7.30435 15.6725 7.03183 15.4 6.69565 15.4C2.99775 15.4 0 12.4023 0 8.70435V8.2Z" fill="#EB5757"/>
<path d="M12.5232 11.4001C12.4298 11.4801 12.2832 11.5501 12.0832 11.6101C11.8898 11.6701 11.6765 11.7001 11.4432 11.7001C11.1632 11.7001 10.9232 11.6601 10.7232 11.5801C10.5232 11.4934 10.3865 11.3768 10.3132 11.2301C10.2398 11.0768 10.1498 10.8801 10.0432 10.6401C9.9365 10.3934 9.82316 10.1201 9.70316 9.8201C9.58983 9.5201 9.46983 9.20343 9.34316 8.8701C9.22316 8.5301 9.1065 8.18676 8.99316 7.8401C8.87983 7.49343 8.77316 7.15343 8.67316 6.8201C8.57316 6.48676 8.4865 6.17343 8.41316 5.8801C8.5065 5.78676 8.63983 5.70343 8.81316 5.6301C8.99316 5.5501 9.18316 5.5101 9.38316 5.5101C9.62983 5.5101 9.82983 5.56343 9.98316 5.6701C10.1432 5.7701 10.2598 5.9601 10.3332 6.2401C10.5132 6.89343 10.6932 7.5201 10.8732 8.1201C11.0598 8.71343 11.2532 9.33343 11.4532 9.9801H11.5132C11.6932 9.35343 11.8765 8.6701 12.0632 7.9301C12.2565 7.1901 12.4398 6.45343 12.6132 5.7201C12.7332 5.6601 12.8598 5.6101 12.9932 5.5701C13.1332 5.5301 13.2898 5.5101 13.4632 5.5101C13.7098 5.5101 13.9198 5.56676 14.0932 5.6801C14.2665 5.78676 14.3532 5.96676 14.3532 6.2201C14.3532 6.36676 14.3165 6.5801 14.2432 6.8601C14.1765 7.1401 14.0865 7.45676 13.9732 7.8101C13.8665 8.15676 13.7432 8.5201 13.6032 8.9001C13.4698 9.2801 13.3332 9.6401 13.1932 9.9801C13.0598 10.3134 12.9332 10.6101 12.8132 10.8701C12.6932 11.1234 12.5965 11.3001 12.5232 11.4001ZM16.9422 5.3701C17.3222 5.3701 17.6589 5.4201 17.9522 5.5201C18.2456 5.61343 18.4956 5.74343 18.7022 5.9101C18.9089 6.07676 19.0656 6.27343 19.1722 6.5001C19.2789 6.72676 19.3322 6.9701 19.3322 7.2301C19.3322 7.9301 18.9356 8.59676 18.1422 9.2301L16.8322 10.2801H19.2322C19.2722 10.3534 19.3089 10.4468 19.3422 10.5601C19.3822 10.6734 19.4022 10.7968 19.4022 10.9301C19.4022 11.1701 19.3489 11.3434 19.2422 11.4501C19.1356 11.5501 18.9956 11.6001 18.8222 11.6001H15.3522C15.2056 11.5001 15.0889 11.3734 15.0022 11.2201C14.9222 11.0601 14.8822 10.8734 14.8822 10.6601C14.8822 10.4334 14.9289 10.2434 15.0222 10.0901C15.1156 9.9301 15.2189 9.80343 15.3322 9.7101L16.7122 8.5301C16.8856 8.38343 17.0289 8.25343 17.1422 8.1401C17.2556 8.0201 17.3456 7.91343 17.4122 7.8201C17.4856 7.72676 17.5356 7.6401 17.5622 7.5601C17.5956 7.4801 17.6122 7.40343 17.6122 7.3301C17.6122 7.14343 17.5289 6.99676 17.3622 6.8901C17.2022 6.78343 17.0022 6.7301 16.7622 6.7301C16.4956 6.7301 16.2556 6.77343 16.0422 6.8601C15.8356 6.9401 15.6622 7.02676 15.5222 7.1201C15.4089 7.0401 15.3156 6.9401 15.2422 6.8201C15.1689 6.7001 15.1322 6.5601 15.1322 6.4001C15.1322 6.05343 15.2956 5.79676 15.6222 5.6301C15.9489 5.45676 16.3889 5.3701 16.9422 5.3701Z" fill="#FFFDFA"/>
</svg>
