<svg width="28" height="28" viewBox="0 0 28 28" fill="none" xmlns="http://www.w3.org/2000/svg">
<path d="M23.5207 4.93584C23.5207 4.3 22.9141 4.45896 22.7264 4.64682C22.3653 5.037 21.4121 5.83179 19.3758 6.25087C19.0581 6.32312 18.7548 6.35202 18.437 6.35202C17.455 6.35202 16.6318 6.03411 15.693 5.65838C14.6099 5.23931 13.3823 4.76243 11.707 4.76243C11.5626 4.76243 11.4182 4.76243 11.2737 4.77688C9.45402 4.86359 7.87982 5.65838 6.73889 6.25087C6.40391 6.41873 6.0669 6.58252 5.72794 6.7422L5.62685 6.49653L5.6124 6.48208C5.45354 6.10636 5.02028 5.93295 4.64478 6.09191C4.47147 6.16416 4.32705 6.30867 4.25484 6.49653C4.18263 6.66994 4.18263 6.88671 4.25484 7.06012L11.7792 24.8925C11.8947 25.1671 12.1547 25.3405 12.458 25.3405C12.5591 25.3405 12.6602 25.326 12.7468 25.2827C13.1223 25.1237 13.2956 24.6902 13.1368 24.3145L10.5661 18.2162C10.8982 17.6671 11.6348 16.7422 13.0501 16.352C13.4978 16.2364 13.96 16.1642 14.4654 16.1642C15.4331 16.1642 16.3718 16.3809 17.3683 16.6121C18.2782 16.8145 19.2025 17.0312 20.1123 17.0312C21.4843 17.0312 22.5386 16.5543 23.4485 15.5428C23.4774 15.4994 23.5062 15.3983 23.5207 15.3116V4.93584Z" fill="#C58561"/>
</svg>
